<svg width="274" height="396" viewBox="0 0 274 396" fill="none" xmlns="http://www.w3.org/2000/svg">
<path d="M107.289 289.161L3.87036 280.714V321.544L6.679 360.614H22.9691H162.278V280.714L107.289 289.161Z" fill="white"/>
<path d="M258.577 244.702L212.935 267.123L197.667 274.543V360.614H241.842C241.842 360.614 260.446 298.186 261.113 257.393C261.178 253.429 261.113 247.24 261.113 247.24L258.577 244.702Z" fill="white" stroke="black" stroke-linecap="round"/>
<path d="M55.4137 177.248C55.4137 177.248 61.1065 172.287 65.5398 170.68C72.2306 168.257 80.2227 170.68 83.7669 170.68C85.4485 170.68 92.1634 171.173 96.9309 169.165C102.986 166.614 106.954 159.492 109.082 157.545C109.082 157.545 114.76 149.408 119.208 144.915C124.352 139.72 127.742 137.254 133.891 133.295C153.637 120.581 192.117 118.138 192.117 118.138L222.495 121.17C222.495 121.17 228.408 124.157 232.115 126.222C235.52 128.118 240.722 131.274 240.722 131.274C240.722 131.274 248.664 138.184 252.874 143.399C257.554 149.197 259.668 152.904 263 159.566C267.216 167.997 269.058 173.101 271.101 182.3C273.545 193.307 273.919 199.852 273.126 211.097C272.506 219.899 272.277 225.102 269.075 233.327C265.956 241.339 263.061 245.514 257.43 252.02C253.865 256.139 251.612 258.28 247.304 261.619C242.885 265.044 240.407 267.275 235.153 269.197C229.718 271.185 226.214 271.929 220.47 271.218C217.424 270.84 212.875 270.207 212.875 270.207L208.319 268.186C208.319 268.186 211.598 265.803 212.875 263.64C214.707 260.537 214.394 254.546 214.394 254.546C214.394 254.546 215.314 248.823 212.875 244.947C210.006 240.386 206.024 237.372 200.724 236.358C197.423 235.727 195.356 235.464 192.117 236.358C187.885 237.526 181.484 238.379 181.484 238.379L163.257 244.947L152.625 248.483L147.562 249.999L136.929 252.02L131.36 244.947L121.74 240.4L119.125 232.899C117.984 233.164 116.229 233.327 113.639 233.327H88.83C88.83 233.327 81.7671 233.518 77.1849 233.327C75.0118 233.236 71.6155 233.327 71.6155 233.327C71.6155 233.327 72.6281 226.254 71.6155 221.202C70.8706 217.485 65.5398 214.129 65.5398 214.129C65.5398 214.129 68.0971 209.983 69.084 207.056C69.661 205.344 70.0468 202.004 70.0468 202.004C70.3464 197.258 69.888 196.693 69.084 193.415C68.2002 189.812 67.5513 187.719 65.5398 184.599C64.207 182.532 61.4894 179.774 61.4894 179.774C57.2033 177.742 50.3506 179.774 50.3506 179.774L55.4137 177.248Z" fill="white" stroke="black"/>
<path d="M135.917 115.107V97.4247L134.904 96.9195L144.017 94.3934L190.091 73.1745L205.281 80.2475L213.382 118.138L216.926 125.211L211.356 127.737L200.218 162.092L185.028 170.175L146.549 169.165V166.639V164.113C146.718 163.102 146.954 160.374 146.549 157.545C146.043 154.008 147.055 154.514 147.055 151.988L149.587 144.409L153.131 136.073H155.663L153.131 135.316L149.587 132.284L145.03 128.748L141.992 125.211L138.448 120.664L136.423 117.128L135.917 115.107Z" fill="white"/>
<path d="M148.068 148.956C149.15 143.755 153.637 135.821 153.637 135.821L151.612 134.305L144.511 128.407C144.511 128.407 139.1 132.142 138.448 133.295C136.035 137.563 136.177 136.138 134.398 140.873C132.618 145.608 131.114 148.263 129.335 152.998C127.555 157.733 126.491 160.599 124.778 165.628C122.539 172.198 121.648 176.014 120.221 182.806C118.54 190.807 117.891 195.375 117.183 203.519C116.14 215.509 115.545 222.414 117.183 234.337C117.647 237.712 118.702 242.926 118.702 242.926C118.702 242.926 126.356 244.716 129.841 247.978C132.121 250.112 133.385 255.051 133.385 255.051L151.612 254.546C151.612 254.546 153.133 251.77 154.65 250.504C156.621 248.858 158.298 248.821 160.726 247.978C167.726 245.549 179.459 244.947 179.459 244.947L183.509 242.421C183.509 242.421 189.223 240.009 191.61 236.863C194.94 232.476 194.767 229.811 196.673 225.243C199.61 218.208 200.003 213.69 203.762 207.056C206.002 203.102 210.344 197.457 210.344 197.457L205.281 188.363C205.281 188.363 203.132 179.037 202.749 173.207C202.188 164.659 202.574 159.426 205.787 151.482C207.577 147.057 208.07 144.251 210.85 140.368C213.942 136.048 216.317 133.331 220.976 130.769C224.045 129.081 229.583 128.243 229.583 128.243L232.621 127.232C232.621 127.232 229.416 124.202 227.052 122.685C224.821 121.254 220.976 119.654 220.976 119.654H215.407L213.382 122.685C213.382 122.685 208.908 124.465 207.306 126.222C203.674 130.205 200.684 133.57 198.192 138.347C195.743 143.043 194.971 145.507 193.129 150.472C191.015 156.172 189.585 165.628 189.585 165.628C189.585 165.628 189.495 168.154 177.434 168.154H146.549V165.628C146.549 165.628 146.328 161.001 146.549 158.05C146.817 154.46 147.335 152.482 148.068 148.956Z" fill="#FEBD2F" stroke="black"/>
<path d="M136.929 249.494C136.929 249.494 135.419 244.312 134.904 240.905C133.961 234.662 134.904 231.052 134.904 224.738C134.904 221.187 134.904 215.644 134.904 215.644H142.498H160.726H183.509" stroke="black"/>
<path d="M141.486 215.139H138.448L139.967 211.097L145.03 208.887V208.066V204.53L145.536 200.488L146.549 196.446L148.574 192.91L151.612 191.394L153.131 191.899L154.65 194.931L155.156 198.467L167.308 198.972L168.826 196.446L173.89 190.889H176.421L178.953 192.91L180.472 196.446L181.484 200.993V211.603V215.139H173.89L171.358 216.655L167.814 218.676L164.776 218.17L162.245 215.139H151.612L150.599 216.15L149.081 217.665H146.549L144.017 216.655L141.486 215.139Z" fill="white"/>
<path d="M145.536 208.066C145.536 208.066 144.734 203.448 145.536 199.983C146.255 196.877 146.626 194.444 149.08 192.405L150.599 191.394C150.599 191.394 151.533 191.296 152.118 191.394C155.088 191.892 155.156 198.467 155.156 198.467H167.308C167.308 198.467 169.417 194.948 170.852 193.415C172.378 191.783 172.743 190.967 174.902 190.384C179.092 189.253 180.978 198.467 180.978 198.467C182.232 202.436 181.484 210.592 181.484 210.592V215.644H179.459H177.434C177.434 215.644 175.919 211.591 174.396 210.592C172.059 209.06 170.059 209.083 167.308 209.582C166.077 209.805 165.224 209.786 164.27 210.592C163.12 211.563 162.921 212.636 162.751 214.129C162.684 214.717 162.751 215.644 162.751 215.644C162.751 215.644 164.609 217.949 166.295 218.17C167.722 218.358 168.562 217.822 169.839 217.16C171.209 216.45 171.93 215.851 172.877 214.634" stroke="black" stroke-linecap="round"/>
<path d="M138.448 215.644C138.448 215.644 139.196 211.953 139.967 211.097C141.445 209.457 145.03 208.571 145.03 208.571C146.414 208.966 148.574 209.582 148.574 209.582C148.574 209.582 149.934 210.011 150.599 210.592C151.598 211.464 152.22 212.304 152.118 213.624C152.03 214.771 151.435 215.357 150.599 216.15C149.508 217.185 148.561 217.665 147.055 217.665C145.549 217.665 143.511 216.15 143.511 216.15L141.992 214.634" stroke="black" stroke-linecap="round"/>
<path d="M163.763 142.894C162.244 141.378 162.873 147.351 163.763 149.967C164.757 152.885 168.827 156.029 168.827 156.029C168.827 156.029 173.977 153.934 176.927 151.988C181.825 148.756 187.56 141.378 187.56 141.378L202.243 120.664" stroke="black" stroke-linecap="round"/>
<path d="M135.41 115.612C135.41 115.612 141.178 125.909 146.549 130.264C151.353 134.158 154.629 136.266 160.726 137.336C164.426 137.986 166.635 137.923 170.345 137.336C175.604 136.506 183.003 132.284 183.003 132.284" stroke="black" stroke-linecap="round"/>
<path d="M136.423 105.003C136.423 105.003 138.954 103.487 141.486 103.487C142.475 103.487 144.524 104.498 144.524 104.498" stroke="black" stroke-linecap="round"/>
<path d="M150.599 28.2106C149.421 32.6334 149.081 39.8305 149.081 39.8305C149.081 39.8305 147.24 40.7774 146.043 41.3461C142.76 42.9046 140.475 43.9034 137.435 45.893C134.162 48.0357 134.398 47.9139 130.853 49.9347C127.309 51.9556 124.906 55.0981 122.246 58.0181C118.913 61.6769 117.074 65.5838 115.158 70.1432C112.931 75.4415 112.663 77.5589 112.12 83.2787C111.841 86.225 111.856 87.9093 112.12 90.8569C112.651 96.7686 113.095 100.428 116.171 105.508C118.557 109.451 120.096 113.144 124.271 115.107C126.484 116.148 127.916 116.356 130.347 116.623C132.313 116.838 134.842 117.502 135.41 115.612C135.581 115.045 135.41 114.097 135.41 114.097V102.982V96.9195C135.41 96.9195 138.78 97.94 140.98 98.4351C145.262 99.3993 147.738 99.6555 152.118 99.9508C156.458 100.243 158.972 100.697 163.257 99.9508C166.953 99.3069 169.037 98.6369 172.371 96.9195C175.149 95.4883 176.131 93.7159 178.953 92.3726C180.477 91.6467 182.408 92.4345 183.003 90.8569C183.282 90.1183 183.003 88.8361 183.003 88.8361C183.003 88.8361 182.153 85.2762 183.003 83.2787C183.934 81.0922 185.306 80.0027 187.56 79.237C189.432 78.6012 194.142 79.237 194.142 79.237L197.686 81.7631L200.218 86.8152C200.218 86.8152 202.144 95.2171 200.218 98.4351C198.444 101.398 192.623 102.982 192.623 102.982H200.218L199.205 112.076L201.737 120.664C201.737 120.664 203.255 119.149 207.306 120.664C211.356 122.18 213.171 123.242 216.419 121.675C217.457 121.174 217.992 120.904 218.951 120.664C219.809 120.45 220.976 119.654 220.976 119.654C223.772 117.793 224.856 115.215 226.039 112.076C227.323 108.671 227.641 105.585 228.065 101.972C228.547 97.8564 228.065 92.3726 228.065 92.3726C227.689 87.7819 226.282 85.1851 225.027 80.7527C223.509 75.3926 221.798 72.6736 219.457 67.6172C217.232 62.8111 213.382 55.4921 213.382 55.4921C213.382 55.4921 215.518 53.4712 216.419 51.9556C217.321 50.4399 218.876 47.1909 219.457 44.3774C220.22 40.6857 220.976 34.7784 220.976 34.7784C220.976 34.7784 221.563 30.9099 220.976 28.2106C220.376 25.45 218.445 21.1376 218.445 21.1376C218.445 21.1376 216.419 16.5907 213.382 13.5595C211.001 11.1837 209.416 9.61182 206.8 7.49689C204.665 5.77155 202.702 5.13016 200.218 3.9604C196.825 2.36281 194.802 1.55914 191.104 0.92913C187.058 0.23991 184.657 0.491163 180.614 0.914192L180.472 0.92913C177.27 1.26397 172.371 2.44477 172.371 2.44477C172.371 2.44477 167.308 4.46562 163.257 7.49689C159.207 10.5282 156.169 15.5803 154.65 18.1063C153.131 20.6324 150.599 28.2106 150.599 28.2106Z" fill="black" stroke="black"/>
<path d="M172.877 31.7471C170.501 32.7459 167.308 35.2836 167.308 35.2836L166.295 36.294L168.32 36.7992C168.32 36.7992 179.453 37.8097 180.978 37.8097C182.503 37.8097 189.585 38.8201 189.585 38.8201L198.192 41.8513C198.192 41.8513 198.416 39.9249 197.686 38.8201C195.748 35.8877 191.104 32.7575 191.104 32.7575C191.104 32.7575 183.586 30.1244 179.459 30.2315C176.822 30.2999 175.308 30.7251 172.877 31.7471Z" fill="#FEBD2F" stroke="#FEBD2F"/>
<path d="M153.767 115.929C153.767 115.929 153.381 118.662 153.972 120.241C154.624 121.985 157.051 123.884 157.051 123.884" stroke="black" stroke-linecap="round"/>
<path d="M155.662 128.243C155.662 128.243 160.511 129.36 163.257 128.243C165.72 127.24 168.32 123.696 168.32 123.696" stroke="black"/>
<rect width="2.50122" height="5.59655" rx="1.25061" transform="matrix(0.921551 -0.388256 0.389689 0.920947 140.98 110.016)" fill="black"/>
<rect width="2.5017" height="5.59544" rx="1.25085" transform="matrix(0.969163 -0.246422 0.247426 0.968907 159.545 105.663)" fill="black"/>
<path d="M187.56 86.6468L189.788 88.5414L191.205 89.5939M191.205 89.5939L192.42 88.1204L193.636 85.8048M191.205 89.5939L191.61 92.541L192.42 95.909" stroke="black"/>
<path d="M172.371 199.983L174.396 195.436L176.421 199.983H172.371Z" fill="black"/>
<path d="M148.574 200.488L150.093 196.952L151.612 200.488H148.574Z" fill="black"/>
<path d="M150.599 205.54C150.599 205.54 151.14 204.829 151.612 204.53C152.78 203.788 155.156 204.53 155.156 204.53L155.663 205.035" stroke="black" stroke-linecap="round"/>
<path d="M162.245 205.54C162.245 205.54 163.099 204.787 163.763 204.53C164.87 204.102 166.801 204.53 166.801 204.53L168.827 205.54" stroke="black" stroke-linecap="round"/>
<path d="M156.675 208.571C158.059 208.571 158.7 209.075 160.219 208.571" stroke="black" stroke-linecap="round"/>
<path d="M168.826 67.1119C167.63 68.3022 167.308 71.1536 167.308 71.1536C167.308 71.1536 165.688 69.2764 164.27 69.1328C163.026 69.0069 162.195 69.3479 161.232 70.1432C160.343 70.8765 159.86 71.5283 159.713 72.6693C159.553 73.9069 160.082 74.6306 160.726 75.7006C161.663 77.2603 162.733 77.7529 164.27 78.7318L164.296 78.7487C165.922 79.7844 166.919 80.4195 168.826 80.7527C170.19 80.9908 171.136 81.3775 172.371 80.7527C173.5 80.1812 173.745 79.3105 174.396 78.2266C175.264 76.7804 175.623 75.3401 175.915 73.6797C176.188 72.125 176.037 71.5189 175.915 70.1432C175.809 68.9478 176.099 68.0948 175.408 67.1119C174.647 66.0281 173.695 65.674 172.371 65.5963C170.867 65.5081 169.893 66.051 168.826 67.1119Z" fill="#FF0000"/>
<path d="M21.9973 170.68C18.7132 171.763 14.4027 175.227 14.4027 175.227C14.4027 175.227 11.4278 179.144 9.84596 182.3C8.85733 184.273 8.14091 186.317 7.31442 188.363C6.23808 191.027 6.15628 192.586 5.79549 195.436C5.49814 197.785 5.61822 199.137 5.79549 201.498C6.17529 206.557 6.81818 209.472 8.83334 214.129C10.4868 217.95 11.6923 220.059 14.4027 223.223C16.9531 226.199 18.7773 227.551 21.9973 229.79C25.8431 232.464 28.134 234.024 32.6298 235.348C37.386 236.748 40.3739 237.026 45.2875 236.358C49.1911 235.827 51.3406 234.996 54.9073 233.327C56.7503 232.464 59.4641 230.801 59.4641 230.801L62.5019 229.285L63.0083 230.801V236.358V239.895C63.0083 239.895 60.8411 239.755 59.4641 239.895C57.2212 240.122 52.5166 240.786 50.3506 241.41C44.3431 243.14 44.0785 243.271 38.7055 246.462C36.3945 247.835 33.6424 250.504 33.6424 250.504L32.6298 254.041C32.6298 254.041 32.575 256.813 32.6298 258.587C32.7522 262.551 32.6381 264.855 33.6424 268.692C34.4496 271.776 34.8295 273.672 36.6803 276.27C38.6311 279.008 40.3369 280.164 43.2623 281.827C46.8492 283.867 49.8762 284.419 53.8947 285.364C58.7672 286.509 61.0738 287.311 66.0461 287.89C73.3232 288.737 75.4294 288.745 82.7542 288.9C87.4986 289.001 92.2131 288.401 96.9309 287.89C101.558 287.389 106.604 286.535 111.107 285.364C115.103 284.324 115.896 283.898 119.715 282.332C122.577 281.159 123.328 280.666 125.79 278.796C127.57 277.444 129.841 274.754 129.841 274.754C129.841 274.754 132.187 269.164 132.879 265.155C133.62 260.86 134.127 257.207 132.879 253.03C132.574 252.012 132.372 251.009 132.372 251.009L127.309 246.462L121.74 243.936L118.702 242.421L115.158 241.41C115.158 241.41 112.436 241.127 109.589 240.4C104.02 238.978 100.651 239.54 94.9056 239.389C91.3478 239.296 87.8322 239.389 84.2732 239.389C78.7369 239.389 71.6155 239.895 71.6155 239.895V238.379C71.6155 238.379 71.5301 235.298 71.6155 233.327C71.7615 229.953 72.2306 227.554 71.6155 224.233C71.101 221.455 71.2577 220.453 69.5902 218.17C68.2727 216.367 65.5398 214.129 65.5398 214.129L64.0209 209.077L54.9073 193.92C54.9073 193.92 54.3984 189.187 53.3884 186.342C52.1764 182.928 51.1146 181.075 48.8316 178.259L48.7399 178.145C46.7698 175.715 45.5451 174.204 42.7559 172.701C39.8866 171.155 37.3742 169.644 34.1487 169.165C29.2594 168.439 26.6909 169.133 21.9973 170.68Z" fill="white" stroke="black"/>
<path d="M61.9957 229.79C61.9957 229.79 58.2766 230.493 56.4263 230.801C52.6747 231.425 50.4554 230.355 46.8065 229.285C43.0698 228.189 41.0849 227.153 37.6929 225.243C34.1096 223.226 32.2184 221.842 29.0857 219.181C26.3179 216.829 24.8917 215.348 22.5037 212.613C19.1516 208.774 17.432 206.429 14.9091 202.004C13.5975 199.703 11.8712 195.941 11.8712 195.941C11.8712 195.941 9.67157 191.107 9.84601 187.858C9.98988 185.178 10.8586 180.785 10.8586 180.785C10.8586 180.785 9.04043 185.424 7.82078 188.363C6.71945 191.017 6.19824 192.591 5.79555 195.436C5.24173 199.348 5.6372 201.645 6.30186 205.54C6.81712 208.56 8.32709 213.118 8.32709 213.118" stroke="black" stroke-linecap="round"/>
<path d="M1.23868 193.92C2.03837 196.193 4.78283 198.972 4.78283 198.972L5.79544 199.983L6.30175 194.425C6.30175 194.425 6.80806 191.394 7.31437 189.373C7.82068 187.352 8.32698 186.342 8.32698 186.342L9.84591 182.806L10.8585 180.28C10.8585 180.28 9.30567 180.14 8.32698 180.28C6.13856 180.591 3.26391 182.806 3.26391 182.806C3.26391 182.806 1.76923 184.842 1.23868 186.342C0.251572 189.133 0.255979 191.128 1.23868 193.92Z" fill="white" stroke="black"/>
<path d="M13.8964 176.238L11.3649 179.774V180.785C11.3649 180.785 12.2553 181.459 12.8838 181.795C13.9863 182.384 15.9216 182.806 15.9216 182.806C15.9216 182.806 18.8067 183.414 20.4784 182.806C22.1909 182.182 22.4045 180.612 24.0226 179.774C25.1325 179.2 25.8198 178.921 27.0604 178.764C28.6419 178.564 31.1109 179.269 31.1109 179.269L35.6676 180.785C35.6676 180.785 39.1473 182.488 41.237 183.816C43.9724 185.554 45.3691 186.748 47.819 188.868C50.7764 191.428 54.9073 195.941 54.9073 195.941V191.899C54.9073 191.899 54.4788 188.021 53.3884 185.837C52.7528 184.563 52.5518 184.055 51.8695 182.806C51.1489 181.486 50.531 180.606 49.8443 179.269C48.9936 177.613 48.5924 176.582 47.3127 175.227C45.8455 173.675 44.6597 173.169 42.7559 172.196C40.6959 171.144 39.4711 170.544 37.1866 170.175C35.2347 169.86 33.5944 169.165 31.6172 169.165C29.8376 169.165 28.838 169.081 27.0604 169.165C25.0755 169.258 23.4462 169.821 21.491 170.175C19.8867 170.466 19.917 170.974 18.4532 171.691C16.1938 172.797 13.8964 176.238 13.8964 176.238Z" fill="white" stroke="black"/>
<path d="M60.983 204.53C59.1182 200.74 57.9452 199.983 55.4136 196.446C54.8276 195.628 54.9073 193.92 54.9073 193.92C54.9073 193.92 55.0294 192.066 54.9073 190.889C54.65 188.407 52.8821 184.826 52.8821 184.826L49.8442 178.764H54.401H57.9452L61.9956 179.774C61.9956 179.774 63.6718 181.017 64.5272 182.3C65.5067 183.77 66.3022 184.747 67.0587 186.342C67.8917 188.098 67.9338 188.55 68.5776 190.384C69.4498 192.868 69.8728 195.339 70.0965 197.962C70.2307 199.535 70.2156 200.43 70.0965 202.004C69.9913 203.395 69.8935 204.178 69.5902 205.54C69.1833 207.367 69.0001 208.461 68.0713 210.087C67.1687 211.667 65.0335 213.624 65.0335 213.624L64.5272 213.118C64.5272 213.118 62.4437 207.499 60.983 204.53Z" fill="white" stroke="black"/>
<path d="M32.6298 258.082C32.6298 258.082 37.2703 263.472 40.2244 265.155C45.3295 268.064 48.6973 268.786 54.401 270.207C65.5424 272.983 72.2834 272.249 83.7668 272.228C90.0971 272.217 94.6901 271.919 100.981 271.218C109.23 270.299 113.519 270.736 121.234 267.681C125.343 266.054 128.102 265.072 130.853 261.619C131.846 260.374 132.879 258.082 132.879 258.082L133.385 255.556" stroke="black" stroke-linecap="round"/>
<path d="M42.7559 260.103L38.7054 263.134L38.1991 263.64L35.6676 261.619L33.1361 259.093C33.1361 259.093 32.311 258.769 32.1234 258.082C31.9674 257.511 32.1234 256.061 32.1234 256.061C32.1234 256.061 32.5531 253.539 33.1361 252.02C33.6103 250.784 33.8526 250.042 34.655 248.988C36.3166 246.806 39.299 244.682 41.7433 243.431L46.8064 241.915L52.8821 240.905L60.4767 239.895L63.0082 238.884C63.0082 238.884 64.0208 240.929 64.0208 241.915C64.0208 245.072 65.9971 247.534 64.0208 249.999C63.6715 250.435 63.0082 251.009 63.0082 251.009L55.9199 253.535C55.9199 253.535 54.3442 251.505 52.8821 251.009C51.5716 250.565 50.7018 250.774 49.3379 251.009C46.3638 251.522 43.9136 252.27 42.7559 255.051C41.9975 256.873 42.7559 260.103 42.7559 260.103Z" fill="white"/>
<path d="M63.0082 229.285V235.853V238.884M63.0082 238.884C63.0082 238.884 64.0208 240.929 64.0208 241.915C64.0208 245.072 65.9971 247.534 64.0208 249.999C63.6715 250.435 63.0082 251.009 63.0082 251.009L55.9199 253.535C55.9199 253.535 54.3442 251.505 52.8821 251.009C51.5716 250.565 50.7018 250.774 49.3379 251.009C46.3638 251.522 43.9136 252.27 42.7559 255.051C41.9975 256.873 42.7559 260.103 42.7559 260.103L38.7054 263.134L38.1991 263.64L35.6676 261.619L33.1361 259.093C33.1361 259.093 32.311 258.769 32.1234 258.082C31.9674 257.511 32.1234 256.061 32.1234 256.061C32.1234 256.061 32.5531 253.539 33.1361 252.02C33.6103 250.784 33.8526 250.042 34.655 248.988C36.3166 246.806 39.299 244.682 41.7433 243.431L46.8064 241.915L52.8821 240.905L60.4767 239.895L63.0082 238.884Z" stroke="black" stroke-linecap="round"/>
<path d="M61.4893 259.598L64.0208 249.999C64.0208 251.211 63.3457 253.872 62.5019 256.061L61.4893 259.598Z" stroke="black" stroke-linecap="round"/>
<path d="M71.6155 233.327V255.556" stroke="black" stroke-linecap="round"/>
<path d="M76.1722 250.504L71.6155 252.02V244.947V239.895C71.6155 239.895 73.665 239.918 74.6533 239.895C78.2333 239.809 79.1807 239.619 82.7542 239.389C87.6872 239.073 90.9875 239.04 95.9182 239.389C100.849 239.739 106.597 239.427 112.626 240.905C115.422 241.59 116.426 242.187 119.208 242.926L119.332 242.959C121.624 243.568 123.095 243.958 125.284 244.947C127.986 246.166 131.36 248.988 131.36 248.988C131.36 248.988 133.626 253.072 133.385 255.556C133.197 257.49 132.372 259.598 132.372 259.598L130.347 262.124L128.322 263.64L117.689 256.567L119.208 255.556V252.02C119.208 252.02 117.583 249.892 116.171 248.988C113.949 247.568 112.225 247.385 109.589 247.473C106.901 247.562 103.007 249.494 103.007 249.494L98.9561 248.988H89.8426C89.8426 248.988 88.392 247.873 87.311 247.473C85.2717 246.718 82.2479 246.462 82.2479 246.462C82.2479 246.462 79.4229 246.831 78.1975 247.473C76.9351 248.134 76.1722 250.504 76.1722 250.504Z" stroke="black" stroke-linecap="round"/>
<path d="M26.0478 261.619L32.1235 259.598L32.6298 263.64L33.1361 267.176L35.1613 274.249L39.2118 279.301L43.2623 282.332L49.8443 284.353L54.9073 285.869L59.9704 287.384L67.0587 288.395L74.147 288.9H80.2227H86.8047L91.3615 288.395L99.4624 287.89L105.538 286.879L112.626 284.858L117.689 283.343L123.259 280.817L125.79 278.796L128.322 276.775L130.347 274.249L131.36 271.218L132.372 268.186L133.385 264.145V261.113V254.546H151.612L159.713 255.051H168.827C168.827 255.051 165.814 257.317 163.764 258.587C161.659 259.892 159.975 259.9 158.194 261.619C155.969 263.765 155.295 265.671 154.65 268.692C154.114 271.2 153.535 272.948 154.65 275.259C155.499 277.019 158.194 278.796 158.194 278.796L162.245 280.817L161.232 284.858C161.232 284.858 153.579 292.883 147.562 296.478C147.562 296.478 140.894 299.85 136.423 301.53C121.481 307.146 111.871 306.412 95.9183 307.088C81.6825 307.691 59.4641 305.572 59.4641 305.572C59.4641 305.572 43.8001 304.188 34.1487 301.53C27.8791 299.804 18.4532 295.973 18.4532 295.973C18.4532 295.973 12.0519 292.967 8.83335 289.911C6.79779 287.977 5.05546 287.047 4.27658 284.353C3.72856 282.458 3.96049 281.249 4.27658 279.301C4.64655 277.021 5.09447 275.714 6.30181 273.744C7.98097 271.004 9.79387 270.102 12.3775 268.186C17.1335 264.66 26.0478 261.619 26.0478 261.619Z" fill="white" stroke="black" stroke-linecap="round"/>
<path d="M130.853 272.733C130.853 272.733 133.074 268.951 135.41 267.681C137.865 266.346 142.498 266.671 142.498 266.671H155.156" stroke="black" stroke-linecap="round"/>
<path d="M77.6911 254.546C76.838 253.308 76.1722 251.009 76.1722 251.009V249.999C76.1722 249.999 77.5863 248.572 78.7037 247.978C79.9742 247.303 80.4759 246.803 82.2479 246.968C84.2556 247.153 87.3109 247.978 87.3109 247.978L89.8425 248.988C89.8425 248.988 90.3523 251.241 89.8425 252.525C89.4783 253.442 88.3235 254.546 88.3235 254.546C88.3235 254.546 86.842 256.952 85.2857 257.577C83.4424 258.318 81.9621 258.03 80.2226 257.072C78.9987 256.397 78.4832 255.695 77.6911 254.546Z" fill="#FEBD2F"/>
<path d="M11.8711 282.332L32.1234 279.806M39.2117 297.994L51.3631 289.911M77.6911 304.057V294.457M119.208 299.51L107.563 289.911M130.347 282.332L150.093 285.364M76.1722 251.009C76.1722 251.009 76.838 253.308 77.6911 254.546C78.4832 255.695 78.9987 256.397 80.2226 257.072C81.9621 258.03 83.4424 258.318 85.2857 257.577C86.842 256.952 88.3236 254.546 88.3236 254.546C88.3236 254.546 89.4783 253.442 89.8425 252.525C90.3523 251.241 89.8425 248.988 89.8425 248.988L87.3109 247.978C87.3109 247.978 84.2556 247.153 82.2479 246.968C80.4759 246.803 79.9742 247.303 78.7037 247.978C77.5863 248.572 76.1722 249.999 76.1722 249.999V251.009Z" stroke="black" stroke-linecap="round"/>
<path d="M49.3379 265.66C46.0517 264.928 42.7559 260.103 42.7559 260.103C42.7559 260.103 42.4311 257.909 42.7559 256.567C43.0671 255.28 43.4301 254.556 44.2748 253.535C45.4628 252.1 46.494 251.363 48.3253 251.009C49.2959 250.822 50.8568 251.009 50.8568 251.009L53.8947 251.514L55.9199 253.535L57.9451 257.072C57.9451 257.072 59.2868 258.899 58.9578 260.103C58.6635 261.18 57.9451 262.629 57.9451 262.629C57.9451 262.629 55.2279 264.993 53.3884 265.66C51.9018 266.2 50.8817 266.004 49.3379 265.66Z" fill="#FEBD2F"/>
<path d="M72.6281 267.681L69.5902 272.228L90.3488 271.723L88.8299 269.197C88.8299 269.197 85.5447 266.853 83.2605 265.66C81.5351 264.759 80.6406 263.437 78.7038 263.64C77.6447 263.75 76.1722 264.65 76.1722 264.65L72.6281 267.681Z" fill="#FEBD2F"/>
<path d="M100.981 253.535L103.007 249.999L107.057 247.978H113.133L116.677 248.988L118.702 251.514V254.041L118.196 255.556L117.689 257.072C117.689 257.072 115.774 259.285 114.145 260.103C112.344 261.007 109.082 261.113 109.082 261.113C109.082 261.113 104.973 260.635 103.007 259.093C101.792 258.14 100.704 257.585 100.475 256.061C100.326 255.066 100.981 253.535 100.981 253.535Z" fill="#FEBD2F"/>
<path d="M49.3379 265.66C46.0517 264.928 42.7559 260.103 42.7559 260.103C42.7559 260.103 42.4311 257.909 42.7559 256.567C43.0671 255.28 43.4301 254.556 44.2748 253.535C45.4628 252.1 46.494 251.363 48.3253 251.009C49.2959 250.822 50.8568 251.009 50.8568 251.009L53.8947 251.514L55.9199 253.535L57.9451 257.072C57.9451 257.072 59.2868 258.899 58.9578 260.103C58.6635 261.18 57.9451 262.629 57.9451 262.629C57.9451 262.629 55.2279 264.993 53.3884 265.66C51.9018 266.2 50.8817 266.004 49.3379 265.66Z" stroke="black" stroke-linecap="round"/>
<path d="M72.6281 267.681L69.5902 272.228L90.3488 271.723L88.8299 269.197C88.8299 269.197 85.5447 266.853 83.2605 265.66C81.5351 264.759 80.6406 263.437 78.7038 263.64C77.6447 263.75 76.1722 264.65 76.1722 264.65L72.6281 267.681Z" stroke="black" stroke-linecap="round"/>
<path d="M100.981 253.535L103.007 249.999L107.057 247.978H113.133L116.677 248.988L118.702 251.514V254.041L118.196 255.556L117.689 257.072C117.689 257.072 115.774 259.285 114.145 260.103C112.344 261.007 109.082 261.113 109.082 261.113C109.082 261.113 104.973 260.635 103.007 259.093C101.792 258.14 100.704 257.585 100.475 256.061C100.326 255.066 100.981 253.535 100.981 253.535Z" stroke="black" stroke-linecap="round"/>
<path d="M65.0336 261.108C65.8768 261.108 66.5588 261.79 66.559 262.629C66.559 263.468 65.8769 264.15 65.0336 264.15C64.1902 264.15 63.5082 263.468 63.5082 262.629C63.5084 261.79 64.1903 261.108 65.0336 261.108Z" stroke="black"/>
<path d="M64.021 221.702C64.8642 221.702 65.5462 222.384 65.5464 223.222C65.5464 224.061 64.8643 224.744 64.021 224.744C63.1776 224.744 62.4956 224.061 62.4956 223.222C62.4958 222.383 63.1777 221.702 64.021 221.702Z" stroke="black"/>
<path d="M67.0588 239.889C67.902 239.889 68.5841 240.571 68.5842 241.41C68.5842 242.249 67.9021 242.931 67.0588 242.931C66.2155 242.931 65.5334 242.249 65.5334 241.41C65.5336 240.571 66.2156 239.889 67.0588 239.889Z" stroke="black"/>
<path d="M44.7814 219.681C45.6246 219.681 46.3066 220.363 46.3068 221.201C46.3068 222.04 45.6247 222.723 44.7814 222.723C43.938 222.723 43.256 222.04 43.256 221.201C43.2562 220.363 43.9381 219.681 44.7814 219.681Z" stroke="black"/>
<path d="M56.9327 214.629C57.7759 214.629 58.4579 215.311 58.4581 216.149C58.4581 216.988 57.776 217.671 56.9327 217.671C56.0894 217.671 55.4073 216.988 55.4073 216.149C55.4075 215.31 56.0895 214.629 56.9327 214.629Z" stroke="black"/>
<path d="M93.3868 254.035C94.23 254.035 94.912 254.717 94.9122 255.556C94.9122 256.395 94.2301 257.077 93.3868 257.077C92.5435 257.077 91.8615 256.395 91.8615 255.556C91.8616 254.717 92.5436 254.035 93.3868 254.035Z" stroke="black"/>
<path d="M93.3868 264.14C94.23 264.14 94.912 264.821 94.9122 265.66C94.9122 266.499 94.2301 267.181 93.3868 267.182C92.5435 267.182 91.8615 266.499 91.8615 265.66C91.8616 264.821 92.5436 264.14 93.3868 264.14Z" stroke="black"/>
<path d="M108.576 264.14C109.419 264.14 110.101 264.821 110.101 265.66C110.101 266.499 109.419 267.181 108.576 267.182C107.733 267.182 107.051 266.499 107.051 265.66C107.051 264.821 107.733 264.14 108.576 264.14Z" stroke="black"/>
<path d="M75.1598 259.087C76.003 259.087 76.685 259.769 76.6852 260.608C76.6852 261.447 76.0031 262.129 75.1598 262.129C74.3164 262.129 73.6344 261.447 73.6344 260.608C73.6346 259.769 74.3165 259.087 75.1598 259.087Z" stroke="black"/>
<path d="M58.9579 267.171C59.8011 267.171 60.4831 267.853 60.4833 268.691C60.4833 269.53 59.8012 270.213 58.9579 270.213C58.1145 270.213 57.4325 269.53 57.4325 268.691C57.4327 267.853 58.1146 267.171 58.9579 267.171Z" stroke="black"/>
<path d="M85.2859 260.098C86.1291 260.098 86.8111 260.78 86.8113 261.618C86.8113 262.457 86.1292 263.14 85.2859 263.14C84.4425 263.14 83.7605 262.457 83.7605 261.618C83.7607 260.78 84.4426 260.098 85.2859 260.098Z" stroke="black"/>
<path d="M97.4373 260.098C98.2804 260.098 98.9624 260.78 98.9626 261.618C98.9626 262.457 98.2806 263.14 97.4373 263.14C96.5939 263.14 95.9119 262.457 95.9119 261.618C95.9121 260.78 96.594 260.098 97.4373 260.098Z" stroke="black"/>
<path d="M120.727 262.119C121.571 262.119 122.253 262.8 122.253 263.639C122.253 264.478 121.571 265.161 120.727 265.161C119.884 265.161 119.202 264.478 119.202 263.639C119.202 262.8 119.884 262.119 120.727 262.119Z" stroke="black"/>
<path d="M26.0477 216.655L34.1487 214.634C34.1487 214.634 40.234 212.643 44.2748 212.108C48.979 211.485 56.4262 212.108 56.4262 212.108H63.5145" stroke="black" stroke-linecap="round"/>
<path d="M35.1613 207.056C32.4804 208.929 31.6172 214.634 31.6172 214.634L35.1613 213.624H39.2118L46.8064 211.603C46.8064 211.603 46.1662 208.422 44.7812 207.056C42.1093 204.421 38.2387 204.906 35.1613 207.056Z" fill="#FEBD2F" stroke="black" stroke-linecap="round"/>
<path d="M162.245 280.312C162.245 280.312 167.195 280.596 170.345 280.312C175.408 279.854 178.356 279.336 183.003 277.28C186.165 275.882 188.26 275.203 191.104 273.239C194.456 270.923 197.288 269.981 198.699 266.166C199.657 263.574 198.699 259.093 198.699 259.093C198.699 259.093 197.446 253.846 195.155 251.514C193.11 249.435 191.315 248.978 188.573 247.978C185.914 247.008 186.113 247.572 183.509 246.462C182.696 246.116 179.459 245.452 179.459 245.452H173.383L166.801 246.462L160.726 247.978L156.675 248.988L153.637 251.514L152.118 254.041L168.827 255.051L165.282 257.577L163.257 259.093L160.219 260.103L157.688 262.124L156.169 264.65L155.156 267.176L154.144 271.218V274.249L155.156 275.765L156.675 277.28L159.713 279.301L162.245 280.312Z" fill="white"/>
<path d="M162.245 280.312C162.245 280.312 167.195 280.596 170.345 280.312C175.408 279.854 178.356 279.336 183.003 277.28C186.165 275.882 188.26 275.203 191.104 273.239C194.456 270.923 197.288 269.981 198.699 266.166C199.657 263.574 198.699 259.093 198.699 259.093C198.699 259.093 197.446 253.846 195.155 251.514C193.11 249.435 191.315 248.978 188.573 247.978C185.914 247.008 186.113 247.572 183.509 246.462C182.696 246.116 179.459 245.452 179.459 245.452H173.383L166.801 246.462L160.726 247.978L156.675 248.988L153.637 251.514L152.118 254.041L168.827 255.051L165.282 257.577L163.257 259.093L160.219 260.103L157.688 262.124L156.169 264.65L155.156 267.176L154.144 271.218V274.249L155.156 275.765L156.675 277.28L159.713 279.301L162.245 280.312Z" stroke="black" stroke-linecap="round"/>
<path d="M194.142 275.259C192.65 275.056 190.598 273.744 190.598 273.744C190.598 273.744 194.314 271.647 196.167 269.702C197.039 268.786 197.569 268.276 198.192 267.176C198.717 266.251 199.205 264.65 199.205 264.65V260.608C199.205 260.608 198.839 257.762 198.192 256.061C197.278 253.656 196.649 252.126 194.648 250.504C193.276 249.391 192.242 249.133 190.598 248.483C188.502 247.655 187.165 247.686 185.028 246.968C183.01 246.289 179.965 244.947 179.965 244.947C179.965 244.947 182.078 243.338 183.509 242.421C185.594 241.084 185.679 240.998 187.56 239.389C188.944 238.206 190.373 236.382 192.117 235.853C193.063 235.566 194.648 235.853 194.648 235.853C194.648 235.853 197.452 235.547 199.205 235.853C201.303 236.219 202.302 236.046 204.268 236.863C205.658 237.441 209.331 239.389 209.331 239.389C209.331 239.389 211.221 240.664 212.369 242.421C213.292 243.833 213.87 245.365 214.394 246.968C214.841 248.333 215.407 250.504 215.407 250.504C215.407 250.504 215.626 254.516 215.407 257.072C215.202 259.463 214.659 261.101 213.382 263.134C212.639 264.316 212.345 265.179 211.356 266.166C210.17 267.349 209.089 267.606 207.812 268.692C205.179 270.93 204.398 272.357 201.23 273.744C198.94 274.746 196.62 275.597 194.142 275.259Z" fill="white" stroke="black" stroke-linecap="round"/>
<path d="M4.27649 278.796L2.75757 300.015V316.182" stroke="black" stroke-linecap="round"/>
<path d="M142.498 259.087C143.062 259.087 143.518 259.543 143.518 260.103C143.518 260.663 143.062 261.119 142.498 261.119C141.935 261.118 141.48 260.663 141.48 260.103C141.48 259.543 141.935 259.088 142.498 259.087Z" stroke="black"/>
<path d="M152.624 259.087C153.188 259.087 153.644 259.543 153.644 260.103C153.644 260.663 153.188 261.119 152.624 261.119C152.061 261.118 151.606 260.663 151.606 260.103C151.606 259.543 152.061 259.088 152.624 259.087Z" stroke="black"/>
</svg>
